<svg width="30" height="58" viewBox="0 0 30 58" fill="none" xmlns="http://www.w3.org/2000/svg">
<g clip-path="url(#clip0_6_100)">
<path d="M4.51379 51.0443C4.38773 53.1554 2.02904 54.6619 2.02904 54.6619C2.02904 54.6619 -0.121744 52.746 0.00542495 50.636C0.131485 48.525 2.49018 47.0184 2.49018 47.0184C2.49018 47.0184 4.641 48.9324 4.51379 51.0443Z" fill="#03A100"/>
<path d="M7.38937 57.7562C4.89657 57.6561 3.1247 55.6636 3.1247 55.6636C3.1247 55.6636 5.39418 53.8365 7.88573 53.9375C10.3786 54.0376 12.1504 56.0301 12.1504 56.0301C12.1504 56.0301 9.8832 57.8572 7.38937 57.7562Z" fill="#03A100"/>
<path d="M9.96465 46.8142C10.298 48.9077 8.30445 50.7541 8.30445 50.7541C8.30445 50.7541 5.77395 49.206 5.44192 47.1134C5.10856 45.02 7.10213 43.1736 7.10213 43.1736C7.10213 43.1736 9.63225 44.7198 9.96465 46.8142Z" fill="#03A100"/>
<path d="M14.2483 52.9616C11.7747 53.2505 9.6003 51.5683 9.6003 51.5683C9.6003 51.5683 11.4367 49.4209 13.9092 49.1331C16.3828 48.8442 18.5572 50.5264 18.5572 50.5264C18.5572 50.5264 16.723 52.6735 14.2483 52.9616Z" fill="#03A100"/>
<path d="M14.0273 41.6595C14.7648 43.6763 13.1581 45.7753 13.1581 45.7753C13.1581 45.7753 10.359 44.6036 9.62303 42.5875C8.88555 40.5707 10.4923 38.4717 10.4923 38.4717C10.4923 38.4717 13.2906 39.6416 14.0273 41.6595Z" fill="#03A100"/>
<path d="M19.4542 47.1203C17.0698 47.7512 14.596 46.3975 14.596 46.3975C14.596 46.3975 15.9889 44.0237 18.3724 43.394C20.7568 42.7631 23.2306 44.1168 23.2306 44.1168C23.2306 44.1168 21.8398 46.4899 19.4542 47.1203Z" fill="#03A100"/>
<path d="M16.8076 36.2399C17.932 38.1234 16.7597 40.4185 16.7597 40.4185C16.7597 40.4185 13.7678 39.6586 12.6451 37.7755C11.5207 35.8919 12.693 33.5968 12.693 33.5968C12.693 33.5968 15.6838 34.3551 16.8076 36.2399Z" fill="#03A100"/>
<path d="M23.2381 40.8555C21.0099 41.8135 18.3031 40.8284 18.3031 40.8284C18.3031 40.8284 19.2102 38.2926 21.4379 37.3359C23.666 36.3778 26.3729 37.363 26.3729 37.363C26.3729 37.363 25.4678 39.8978 23.2381 40.8555Z" fill="#03A100"/>
<path d="M18.9807 30.5945C20.3707 32.3459 19.5406 34.7448 19.5406 34.7448C19.5406 34.7448 16.4597 34.3027 15.0713 32.5517C13.6813 30.8004 14.5115 28.4015 14.5115 28.4015C14.5115 28.4015 17.591 28.842 18.9807 30.5945Z" fill="#03A100"/>
<path d="M26.0373 34.5042C23.9644 35.6867 21.1339 34.9916 21.1339 34.9916C21.1339 34.9916 21.6659 32.3816 23.7385 31.2003C25.8112 30.0177 28.6418 30.7129 28.6418 30.7129C28.6418 30.7129 28.1116 33.3218 26.0373 34.5042Z" fill="#03A100"/>
<path d="M20.3852 24.8853C22.004 26.4892 21.5041 28.9521 21.5041 28.9521C21.5041 28.9521 18.3827 28.8126 16.7655 27.2087C15.1468 25.6047 15.6466 23.1418 15.6466 23.1418C15.6466 23.1418 18.7666 23.28 20.3852 24.8853Z" fill="#03A100"/>
<path d="M27.9256 28.081C26.026 29.4569 23.1189 29.0416 23.1189 29.0416C23.1189 29.0416 23.2938 26.3981 25.1932 25.0237C27.0928 23.6479 30 24.0631 30 24.0631C30 24.0631 29.8267 26.7053 27.9256 28.081Z" fill="#03A100"/>
<path d="M20.028 18.8072C21.962 20.1377 21.993 22.6351 21.993 22.6351C21.993 22.6351 18.8906 22.9731 16.9582 21.6424C15.0242 20.312 14.9932 17.8145 14.9932 17.8145C14.9932 17.8145 18.0938 17.4754 20.028 18.8072Z" fill="#03A100"/>
<path d="M28.1267 20.8017C26.5489 22.4435 23.5991 22.4778 23.5991 22.4778C23.5991 22.4778 23.2099 19.8523 24.7879 18.2118C26.3656 16.5701 29.3155 16.5358 29.3155 16.5358C29.3155 16.5358 29.7061 19.1598 28.1267 20.8017Z" fill="#03A100"/>
<path d="M18.4073 13.0599C20.6041 14.0572 21.1905 16.5035 21.1905 16.5035C21.1905 16.5035 18.2169 17.3303 16.0216 16.3326C13.8248 15.3353 13.2385 12.889 13.2385 12.889C13.2385 12.889 16.2101 12.0614 18.4073 13.0599Z" fill="#03A100"/>
<path d="M26.8098 13.7254C25.6246 15.5885 22.7333 16.093 22.7333 16.093C22.7333 16.093 21.7665 13.5781 22.9521 11.7162C24.1372 9.85298 27.0286 9.34851 27.0286 9.34851C27.0286 9.34851 27.9964 11.8617 26.8098 13.7254Z" fill="#03A100"/>
<path d="M15.9317 7.20487C18.3024 7.85977 19.387 10.1797 19.387 10.1797C19.387 10.1797 16.6293 11.435 14.2602 10.7795C11.8895 10.1246 10.8049 7.80467 10.8049 7.80467C10.8049 7.80467 13.5604 6.54882 15.9317 7.20487Z" fill="#03A100"/>
<path d="M24.3481 6.61147C23.567 8.62083 20.8235 9.54674 20.8235 9.54674C20.8235 9.54674 19.3498 7.21589 20.1317 5.20775C20.9128 3.19838 23.6563 2.27246 23.6563 2.27246C23.6563 2.27246 25.1306 4.60151 24.3481 6.61147Z" fill="#03A100"/>
<path d="M16.0191 1.5603C17.588 2.88167 17.4403 5.15986 17.4403 5.15986C17.4403 5.15986 14.7511 5.29375 13.1835 3.97234C11.6145 2.65097 11.7622 0.372781 11.7622 0.372781C11.7622 0.372781 14.4501 0.237731 16.0191 1.5603Z" fill="#03A100"/>
</g>
<defs>
<clipPath id="clip0_6_100">
<rect width="30" height="57.3913" fill="white" transform="translate(0 0.368896)"/>
</clipPath>
</defs>
</svg>
