<svg width="144" height="29" viewBox="0 0 144 29" fill="none" xmlns="http://www.w3.org/2000/svg">
<path d="M28.1901 12.0001H4.4901C4.90929 10.1006 5.87879 8.36661 7.27754 7.01478C8.67629 5.66294 10.4423 4.75313 12.355 4.39896C14.2677 4.04479 16.2424 4.26196 18.0325 5.02335C19.8225 5.78473 21.3486 7.05659 22.4201 8.6801L26.0001 6.3101C24.2117 3.62518 21.5606 1.63089 18.4851 0.65688C15.4096 -0.317129 12.0938 -0.212546 9.08586 0.953343C6.07787 2.11923 3.55775 4.27662 1.94207 7.06891C0.326388 9.86121 -0.288126 13.1212 0.200104 16.3101H23.9001C23.4891 18.218 22.5239 19.962 21.1256 21.3235C19.7273 22.685 17.9581 23.6033 16.0399 23.9632C14.1218 24.3231 12.1401 24.1086 10.3433 23.3467C8.54655 22.5847 7.01477 21.3092 5.9401 19.6801L2.4001 22.0501C3.98822 24.4258 6.25752 26.2658 8.91015 27.3286C11.5628 28.3914 14.4748 28.6274 17.2639 28.0056C20.053 27.3837 22.589 25.9331 24.5389 23.8441C26.4888 21.7551 27.7616 19.1254 28.1901 16.3001C28.2971 15.5985 28.3506 14.8898 28.3501 14.1801C28.3537 13.4504 28.3002 12.7215 28.1901 12.0001Z" fill="url(#paint0_linear_7_2536)"/>
<path d="M84.2602 7.31003V9.45003C84.7621 8.70649 85.4425 8.10081 86.2392 7.68849C87.0359 7.27616 87.9233 7.07039 88.8202 7.09003C91.6502 7.09003 94.3102 9.15003 94.3102 13.09V21.09H92.2502V13.1C92.292 12.573 92.2233 12.043 92.0486 11.544C91.8739 11.045 91.597 10.5879 91.2356 10.202C90.8742 9.81616 90.4362 9.50994 89.9497 9.30296C89.4632 9.09599 88.9389 8.99281 88.4102 9.00003C87.8601 8.98763 87.3133 9.08716 86.8028 9.29259C86.2924 9.49802 85.8291 9.80506 85.4409 10.1951C85.0528 10.5851 84.748 11.0499 84.545 11.5613C84.3421 12.0727 84.2452 12.62 84.2602 13.17V21H82.2002V7.31003H84.2602Z" fill="#201E2E"/>
<path d="M107.54 17.0801H109.79C109.34 18.3605 108.486 19.4602 107.357 20.214C106.228 20.9677 104.885 21.3348 103.53 21.2601C102.599 21.2829 101.674 21.1141 100.811 20.764C99.948 20.414 99.1664 19.8902 98.5146 19.2253C97.8628 18.5603 97.3547 17.7684 97.0219 16.8988C96.6891 16.0291 96.5388 15.1003 96.5802 14.1701C96.5802 10.2401 99.1902 7.08008 103.39 7.08008C107.59 7.08008 110.2 10.2401 110.2 14.1701V15.0001H98.6902C98.7893 16.213 99.3472 17.3424 100.25 18.1582C101.153 18.9739 102.334 19.4145 103.55 19.3901C104.366 19.4248 105.175 19.2258 105.882 18.8166C106.589 18.4074 107.164 17.805 107.54 17.0801ZM98.7202 13.0801H108.06C107.912 11.9467 107.356 10.9061 106.497 10.1522C105.637 9.39831 104.533 8.98261 103.39 8.98261C102.247 8.98261 101.143 9.39831 100.284 10.1522C99.4246 10.9061 98.8689 11.9467 98.7202 13.0801Z" fill="#201E2E"/>
<path d="M120.71 10.0801L117.28 21.0801H114.92L110.6 7.31006H112.8L116.09 18.4901L119.58 7.31006H121.83L125.32 18.4901L128.61 7.31006H130.81L126.51 21.0001H124.15L120.71 10.0801Z" fill="#201E2E"/>
<path d="M142.63 11H140.54C140.37 9.82 139.54 8.85999 137.19 8.85999C135.05 8.85999 133.92 9.49 133.92 10.86C133.92 14.15 143.06 12.01 143.06 17.17C143.06 19.84 140.86 21.29 137.46 21.29C133.64 21.29 131.64 19.17 131.46 16.76H133.6C133.74 18.16 134.78 19.53 137.45 19.53C138.58 19.53 140.96 19.23 140.96 17.36C140.96 13.93 131.82 16.07 131.82 11.05C131.82 8.58 133.66 7.12 137.2 7.12C140.74 7.12 142.39 9 142.63 11Z" fill="#201E2E"/>
<path d="M53.86 14.17C53.8897 10.5801 52.5555 7.11277 50.1273 4.46856C47.699 1.82435 44.3575 0.200418 40.7781 -0.0751202C37.1986 -0.350659 33.648 0.742736 30.8436 2.98415C28.0392 5.22556 26.1902 8.44788 25.67 12C25.4567 13.4087 25.4567 14.8414 25.67 16.25C26.097 19.0761 27.3686 21.707 29.3179 23.7973C31.2671 25.8876 33.8029 27.3395 36.5924 27.9625C39.3818 28.5855 42.2944 28.3504 44.9478 27.2881C47.6011 26.2258 49.8712 24.3859 51.46 22.01C50.35 21.14 49.09 20.42 47.91 19.64C46.835 21.257 45.3082 22.5222 43.5196 23.2781C41.731 24.034 39.7596 24.2472 37.8508 23.8912C35.942 23.5353 34.1799 22.6258 32.784 21.276C31.3881 19.9263 30.42 18.1958 30 16.3H53.7C53.8071 15.5951 53.8606 14.8831 53.86 14.17ZM30 12C30.4886 9.79552 31.7147 7.82364 33.4756 6.41023C35.2366 4.99683 37.427 4.22648 39.685 4.22648C41.943 4.22648 44.1335 4.99683 45.8944 6.41023C47.6554 7.82364 48.8814 9.79552 49.37 12H30Z" fill="url(#paint1_linear_7_2536)"/>
<path d="M65.2 0C62.3975 0 59.6578 0.831056 57.3276 2.38808C54.9974 3.9451 53.1812 6.15815 52.1087 8.74738C51.0362 11.3366 50.7556 14.1857 51.3023 16.9344C51.8491 19.6831 53.1986 22.208 55.1803 24.1897C57.162 26.1714 59.6869 27.521 62.4356 28.0677C65.1843 28.6145 68.0334 28.3339 70.6227 27.2614C73.2119 26.1889 75.4249 24.3727 76.982 22.0424C78.539 19.7122 79.37 16.9726 79.37 14.17C79.37 10.4119 77.8771 6.80769 75.2197 4.1503C72.5623 1.49291 68.9581 0 65.2 0ZM65.2 24.1C63.238 24.1 61.3201 23.5182 59.6888 22.4282C58.0574 21.3382 56.786 19.7889 56.0351 17.9762C55.2843 16.1636 55.0879 14.169 55.4706 12.2447C55.8534 10.3204 56.7982 8.55284 58.1855 7.1655C59.5729 5.77816 61.3404 4.83338 63.2647 4.45061C65.189 4.06784 67.1836 4.26429 68.9963 5.01512C70.8089 5.76594 72.3582 7.03741 73.4482 8.66874C74.5382 10.3001 75.12 12.218 75.12 14.18C75.1174 16.8101 74.0714 19.3318 72.2116 21.1916C70.3518 23.0514 67.8302 24.0974 65.2 24.1Z" fill="url(#paint2_linear_7_2536)"/>
<defs>
<linearGradient id="paint0_linear_7_2536" x1="0.000103691" y1="14.1701" x2="28.3501" y2="14.1701" gradientUnits="userSpaceOnUse">
<stop stop-color="#7E8BC0"/>
<stop offset="0.25" stop-color="#325BA3"/>
<stop offset="1" stop-color="#24427C"/>
</linearGradient>
<linearGradient id="paint1_linear_7_2536" x1="25.51" y1="14.17" x2="53.86" y2="14.17" gradientUnits="userSpaceOnUse">
<stop stop-color="#7E8BC0"/>
<stop offset="0.25" stop-color="#325BA3"/>
<stop offset="1" stop-color="#24427C"/>
</linearGradient>
<linearGradient id="paint2_linear_7_2536" x1="51.02" y1="14.17" x2="79.37" y2="14.17" gradientUnits="userSpaceOnUse">
<stop stop-color="#7E8BC0"/>
<stop offset="0.25" stop-color="#325BA3"/>
<stop offset="1" stop-color="#24427C"/>
</linearGradient>
</defs>
</svg>
