<svg width="10" height="19" viewBox="0 0 10 19" fill="none" xmlns="http://www.w3.org/2000/svg">
<path fill-rule="evenodd" clip-rule="evenodd" d="M0.190725 1.08004C0.251029 1.01833 0.322669 0.969376 0.40154 0.935973C0.48041 0.90257 0.564963 0.885376 0.650355 0.885376C0.735746 0.885376 0.820299 0.90257 0.89917 0.935973C0.97804 0.969376 1.04968 1.01833 1.10998 1.08004L8.90032 9.0311C8.96077 9.09265 9.00874 9.16577 9.04147 9.24627C9.0742 9.32677 9.09104 9.41306 9.09104 9.50022C9.09104 9.58737 9.0742 9.67367 9.04147 9.75416C9.00874 9.83466 8.96077 9.90778 8.90032 9.96933L1.10998 17.9204C0.988083 18.0448 0.822749 18.1147 0.650355 18.1147C0.47796 18.1147 0.312626 18.0448 0.190725 17.9204C0.0688235 17.796 0.000339897 17.6272 0.000339897 17.4513C0.000339897 17.2753 0.0688235 17.1066 0.190725 16.9822L7.52273 9.50022L0.190725 2.01826C0.130268 1.95671 0.0823013 1.8836 0.0495736 1.8031C0.0168458 1.7226 0 1.6363 0 1.54915C0 1.462 0.0168458 1.3757 0.0495736 1.2952C0.0823013 1.2147 0.130268 1.14159 0.190725 1.08004Z" fill="black"/>
</svg>
