<svg width="106" height="40" viewBox="0 0 106 40" fill="none" xmlns="http://www.w3.org/2000/svg">
<path fill-rule="evenodd" clip-rule="evenodd" d="M43.8765 10.7858C43.8765 9.30196 44.028 7.86598 44.3478 6.47786C44.6675 5.08975 45.5259 3.76546 46.9228 2.50499C47.8316 1.72318 48.8751 1.11687 50.0532 0.670124C51.2482 0.223375 52.6114 0 54.143 0C55.6577 0 57.0209 0.223375 58.2159 0.670124C59.394 1.11687 60.4543 1.72318 61.3463 2.50499C62.7432 3.76546 63.6184 5.08975 63.9213 6.47786C64.2411 7.86598 64.3926 9.30196 64.3926 10.7858V29.2302C64.3926 30.714 64.2411 32.15 63.9213 33.5381C63.6184 34.9262 62.7432 36.2505 61.3463 37.511C60.4543 38.2928 59.394 38.8991 58.2159 39.3458C57.0209 39.7926 55.6577 40 54.143 40C52.6114 40 51.2482 39.7926 50.0532 39.3458C48.8751 38.8991 47.8316 38.2928 46.9228 37.511C45.5259 36.2505 44.6675 34.9262 44.3478 33.5381C44.028 32.15 43.8765 30.714 43.8765 29.2302V10.7858ZM58.5357 9.94017C58.5357 9.34982 58.4683 8.77543 58.3337 8.20104C58.1822 7.62665 57.8456 7.06821 57.3071 6.55764C56.9873 6.25449 56.5665 5.9992 56.0448 5.77583C55.5062 5.55245 54.8835 5.44077 54.143 5.44077C53.3856 5.44077 52.7629 5.55245 52.2243 5.77583C51.7026 5.9992 51.2818 6.25449 50.962 6.55764C50.4235 7.06821 50.0869 7.62665 49.9522 8.20104C49.8008 8.77543 49.7334 9.34982 49.7334 9.94017V30.0598C49.7334 30.6502 49.8008 31.2405 49.9522 31.8149C50.0869 32.3893 50.4235 32.9318 50.962 33.4583C51.2818 33.7455 51.7026 34.0008 52.2243 34.2242C52.7629 34.4475 53.3856 34.5592 54.143 34.5592C54.8835 34.5592 55.5062 34.4475 56.0448 34.2242C56.5665 34.0008 56.9873 33.7455 57.3071 33.4583C57.8456 32.9318 58.1822 32.3893 58.3337 31.8149C58.4683 31.2405 58.5357 30.6502 58.5357 30.0598V9.94017ZM23.8148 0.558436H41.2173V5.83965H29.6718V17.2796H39.8877L39.8709 22.2896H29.6718V34.1763H41.4025V39.4575H23.8148V0.558436ZM14.4235 10.2752C14.4235 9.87635 14.373 9.31791 14.2721 8.61588C14.1711 7.91384 13.885 7.27563 13.4306 6.71719C13.1444 6.43 12.7742 6.1428 12.3029 5.8556C11.8317 5.58436 11.1753 5.44077 10.317 5.44077C9.87937 5.44077 9.42495 5.50459 8.90321 5.63223C8.3983 5.77583 7.91022 6.06302 7.43898 6.49382C6.90041 7.05225 6.54697 7.69047 6.41233 8.42441C6.27769 9.1424 6.21037 9.81252 6.21037 10.4507C6.21037 10.9613 6.27769 11.6474 6.3955 12.4771C6.51331 13.3067 6.76577 13.9769 7.15286 14.5034C7.45581 14.982 7.87656 15.349 8.41513 15.5884C8.93687 15.8277 9.42495 16.0351 9.84571 16.2266L13.4306 17.4551C14.3226 17.7423 15.2314 18.1252 16.1739 18.588C17.1164 19.0507 17.9747 19.7846 18.7489 20.7738C19.5399 21.8269 20.028 22.8959 20.23 23.9968C20.4151 25.1137 20.5161 26.2784 20.5161 27.507V28.8313C20.5161 30.8416 20.2636 32.5648 19.7587 34.0008C19.237 35.4527 18.5638 36.6015 17.7054 37.4471C16.9144 38.197 15.8878 38.8034 14.5918 39.282C13.3127 39.7607 11.798 40 10.0813 40C7.97755 40 6.24403 39.6649 4.89761 38.9789C3.55119 38.2928 2.54137 37.511 1.86816 36.6175C1.41374 36.0271 1.04348 35.373 0.791022 34.6709C0.538569 33.9689 0.353436 33.2988 0.235624 32.6446C0.117812 31.9904 0.0504908 31.432 0.0336605 30.9533C0.0168303 30.4747 0 30.1715 0 30.0598V28.7834H5.85693V29.8365C5.85693 30.2832 5.90742 30.8416 6.0084 31.5118C6.10939 32.1659 6.36184 32.7722 6.79943 33.2828C7.30434 33.8732 7.87656 34.2401 8.49928 34.3678C9.122 34.4954 9.62691 34.5592 10.0308 34.5592C11.1585 34.5592 12 34.3997 12.5385 34.0965C13.0939 33.7774 13.481 33.4743 13.7167 33.1711C14.1374 32.6605 14.4067 32.0383 14.5077 31.3043C14.6087 30.5864 14.6592 29.9322 14.6592 29.3418V27.8899C14.6592 27.2198 14.5918 26.5178 14.474 25.7838C14.3562 25.0339 14.1038 24.4116 13.7167 23.9011C13.3296 23.3746 12.8415 22.9916 12.2524 22.7204C11.6634 22.4651 11.209 22.2896 10.906 22.1779L6.63112 20.726C5.57082 20.359 4.54417 19.8644 3.56802 19.2581C2.59186 18.6358 1.81767 17.6945 1.22861 16.3861C0.807853 15.5086 0.555399 14.5832 0.471247 13.6099C0.387096 12.6526 0.353436 11.6953 0.353436 10.722V9.60511C0.353436 7.97766 0.63955 6.57359 1.22861 5.36099C1.81767 4.16434 2.54137 3.17511 3.39971 2.3933C4.37587 1.4998 5.45301 0.877543 6.64795 0.526526C7.8429 0.175509 9.122 0 10.4853 0C13.4306 0 15.7868 0.861588 17.5876 2.58476C19.3885 4.30794 20.2805 6.79697 20.2805 10.0519V11.3283H14.4235V10.2752Z" fill="black"/>
<path fill-rule="evenodd" clip-rule="evenodd" d="M92.0639 0V29.907C92.0639 31.2657 92.376 32.3655 93.0331 33.2066C93.6737 34.0477 94.6265 34.4844 95.8914 34.4844C97.1563 34.4844 98.1091 34.0477 98.7498 33.2066C99.4069 32.3655 99.719 31.2657 99.719 29.907V0H105.452V29.0659C105.452 31.2495 105.156 33.0449 104.565 34.4521C103.974 35.8593 103.202 36.9753 102.265 37.8002C101.329 38.6252 100.31 39.2074 99.1769 39.5148C98.0598 39.8383 96.9592 40 95.8914 40C94.8237 40 93.723 39.8383 92.606 39.5148C91.4725 39.2074 90.454 38.6252 89.5176 37.8002C88.5813 36.9753 87.8092 35.8593 87.2178 34.4521C86.6264 33.0449 86.3308 31.2495 86.3308 29.0659V0H92.0639ZM72.7618 0C73.3532 0 73.9939 0.0161747 74.6674 0.0646987C75.3573 0.0970481 76.0473 0.177922 76.7701 0.323494C77.4929 0.469066 78.1828 0.695512 78.8728 1.00283C79.5463 1.31015 80.2198 1.73069 80.8276 2.28063C81.534 2.92762 82.0761 3.65548 82.4868 4.43186C82.8974 5.20825 83.1931 5.98463 83.3738 6.74484C83.5545 7.50505 83.6695 8.21674 83.7352 8.89608C83.7845 9.55924 83.8174 10.093 83.8174 10.4974C83.8174 12.3575 83.8174 10.3356 83.8174 12.1957C83.8174 12.6001 83.7845 13.1338 83.7352 13.797C83.6695 14.4763 83.5545 15.188 83.3738 15.9482C83.1931 16.7085 82.8974 17.4848 82.4868 18.2612C82.0761 19.0376 81.534 19.7655 80.8276 20.4125C80.2198 20.9624 79.5463 21.3829 78.8728 21.6903C78.8071 21.7226 78.7578 21.7388 78.7085 21.7711L84.8359 39.4339H78.8892L73.3368 22.4181L73.1068 21.6903H73.1232L71.7269 17.3716H73.6489C74.3553 17.3716 74.9959 17.3069 75.5873 17.2099C76.1787 17.0966 76.7208 16.7408 77.2465 16.11C77.69 15.5762 77.9693 14.9778 78.1007 14.3469C78.2321 13.7161 78.2814 13.1177 78.2814 12.5839C78.2814 10.465 78.2814 12.2281 78.2814 10.1254C78.2814 9.57541 78.2321 8.99313 78.1007 8.34614C77.9693 7.71533 77.69 7.11686 77.2465 6.5831C76.7208 5.96846 76.1787 5.61262 75.5873 5.49939C74.9959 5.38617 74.3553 5.33765 73.6489 5.33765H68.0308L66.2566 0H72.7618Z" fill="#03A100"/>
</svg>
