<svg width="20" height="21" viewBox="0 0 20 21" fill="none" xmlns="http://www.w3.org/2000/svg">
<rect y="0.5" width="20" height="20" rx="10" fill="#03A100"/>
<path d="M10.4033 12.6973H9.13184C9.13639 12.2598 9.17513 11.902 9.24805 11.624C9.32552 11.3415 9.45085 11.084 9.62402 10.8516C9.7972 10.6191 10.0273 10.3548 10.3145 10.0586C10.5241 9.8444 10.7155 9.64388 10.8887 9.45703C11.0664 9.26562 11.21 9.06055 11.3193 8.8418C11.4287 8.61849 11.4834 8.35189 11.4834 8.04199C11.4834 7.72754 11.4264 7.45638 11.3125 7.22852C11.2031 7.00065 11.0391 6.8252 10.8203 6.70215C10.6061 6.5791 10.3395 6.51758 10.0205 6.51758C9.75618 6.51758 9.50553 6.56543 9.26855 6.66113C9.03158 6.75684 8.84017 6.90495 8.69434 7.10547C8.5485 7.30143 8.47331 7.55892 8.46875 7.87793H7.2041C7.21322 7.36296 7.34082 6.9209 7.58691 6.55176C7.83757 6.18262 8.1748 5.90007 8.59863 5.7041C9.02246 5.50814 9.49642 5.41016 10.0205 5.41016C10.5993 5.41016 11.0915 5.51497 11.4971 5.72461C11.9072 5.93424 12.2194 6.23503 12.4336 6.62695C12.6478 7.01432 12.7549 7.47461 12.7549 8.00781C12.7549 8.41797 12.6706 8.79622 12.502 9.14258C12.3379 9.48438 12.126 9.80566 11.8662 10.1064C11.6064 10.4072 11.3307 10.6943 11.0391 10.9678C10.7884 11.2002 10.6198 11.4622 10.5332 11.7539C10.4466 12.0456 10.4033 12.36 10.4033 12.6973ZM9.07715 14.8643C9.07715 14.6592 9.14095 14.486 9.26855 14.3447C9.39616 14.2035 9.58073 14.1328 9.82227 14.1328C10.0684 14.1328 10.2552 14.2035 10.3828 14.3447C10.5104 14.486 10.5742 14.6592 10.5742 14.8643C10.5742 15.0602 10.5104 15.2288 10.3828 15.3701C10.2552 15.5114 10.0684 15.582 9.82227 15.582C9.58073 15.582 9.39616 15.5114 9.26855 15.3701C9.14095 15.2288 9.07715 15.0602 9.07715 14.8643Z" fill="white"/>
</svg>
